# xmcd
#
# Track frame offsets: 
#        150
#        53041
#        74812
#        126079
#        150804
#        177915
#        217172
#        235186
#        251193
#
# Disc length: 4171 seconds
#
# Revision: 0
# Processed by: cddbd v1.5.2PL0 Copyright (c) Steve Scherf et al.
# Submitted via: ExactAudioCopy v1.0b4
#
DISCID=81104909
DTITLE=Eddie Clearwater - Live In Michigan 2009, Volume Two
DYEAR=1900
DGENRE=Blues
TTITLE0=You Don't Know What Love Is
TTITLE1=Introduction - Sweet Home Chicago
TTITLE2=Messin' With The Kid
TTITLE3=Ain't Gonna Let Nobody Take Away My Blues
TTITLE4=All Your Love
TTITLE5=Guitar Boogie Shuffle (Instrumental)
TTITLE6=Susie-Q
TTITLE7=Sweet Little Rock N' Roller
TTITLE8=West Side Strut (Instrumental)
EXTD=
EXTT0=
EXTT1=
EXTT2=
EXTT3=
EXTT4=
EXTT5=
EXTT6=
EXTT7=
EXTT8=
PLAYORDER=
